<?xml version="1.0" encoding="UTF-8" standalone="no"?>
<!-- Created with Inkscape (http://www.inkscape.org/) -->

<svg
   xmlns:dc="http://purl.org/dc/elements/1.1/"
   xmlns:cc="http://creativecommons.org/ns#"
   xmlns:rdf="http://www.w3.org/1999/02/22-rdf-syntax-ns#"
   xmlns:svg="http://www.w3.org/2000/svg"
   xmlns="http://www.w3.org/2000/svg"
   xmlns:sodipodi="http://sodipodi.sourceforge.net/DTD/sodipodi-0.dtd"
   xmlns:inkscape="http://www.inkscape.org/namespaces/inkscape"
   width="744.09448819"
   height="1052.3622047"
   id="svg2"
   version="1.1"
   inkscape:version="0.48.4 r9939"
   sodipodi:docname="newlogoya.svg">
  <defs
     id="defs4" />
  <sodipodi:namedview
     id="base"
     pagecolor="#ffffff"
     bordercolor="#666666"
     borderopacity="1.0"
     inkscape:pageopacity="0.0"
     inkscape:pageshadow="2"
     inkscape:zoom="0.5"
     inkscape:cx="99.39213"
     inkscape:cy="654.62844"
     inkscape:document-units="px"
     inkscape:current-layer="g3489"
     showgrid="false"
     inkscape:window-width="1309"
     inkscape:window-height="744"
     inkscape:window-x="57"
     inkscape:window-y="24"
     inkscape:window-maximized="1" />
  <metadata
     id="metadata7">
    <rdf:RDF>
      <cc:Work
         rdf:about="">
        <dc:format>image/svg+xml</dc:format>
        <dc:type
           rdf:resource="http://purl.org/dc/dcmitype/StillImage" />
        <dc:title />
      </cc:Work>
    </rdf:RDF>
  </metadata>
  <g
     inkscape:groupmode="layer"
     id="layer2"
     inkscape:label="Layer">
    <g
       id="g3471" />
    <g
       id="g3489"
       transform="matrix(-0.8660254,0.5,0.5,0.8660254,450.31612,-146.51715)"
       inkscape:transform-center-x="-774.98903"
       inkscape:transform-center-y="-362.03867">
      <path
         style="fill:#000000;fill-opacity:1"
         d="M 257.65625 159.25 C 243.95457 159.60586 230.14215 163.28997 217.4375 170.625 C 176.78263 194.0971 162.8404 246.09513 186.3125 286.75 C 205.47394 319.93859 243.63609 335.3032 279.125 327.0625 L 335.09375 424 C 305.2564 449.31547 295.08812 491.56487 310.65625 527.90625 L 221.90625 605.03125 C 190.58248 582.00617 146.44447 582.86386 115.875 609.4375 C 80.445759 640.23567 76.670585 693.91451 107.46875 729.34375 C 138.26692 764.77299 191.94576 768.54817 227.375 737.75 C 255.94421 712.91517 263.91338 673.18311 249.78125 640.15625 L 337.96875 563.5 C 361.78573 582.10588 393.95509 587.79485 423.15625 577.53125 L 481.59375 678.71875 C 453.01515 705.07365 445.40386 748.57809 465.65625 783.65625 C 489.12835 824.31112 541.12638 838.25335 581.78125 814.78125 C 622.43613 791.30915 636.3471 739.31112 612.875 698.65625 C 593.94781 665.8734 556.49144 650.49211 521.375 658.0625 L 460.5 552.625 C 485.63708 524.53953 491.23911 482.47782 471.5625 448 L 556.875 373.84375 C 588.13082 396.10022 631.63988 395.00174 661.875 368.71875 C 697.30424 337.92058 701.07942 284.21049 670.28125 248.78125 C 639.48308 213.35201 585.77299 209.60808 550.34375 240.40625 C 521.42015 265.54915 513.63712 305.95365 528.5 339.21875 L 440.375 415.8125 C 421.12619 404.06333 397.88779 399.80996 375.46875 404.375 L 318.5625 305.8125 C 346.37052 279.37735 353.56122 236.44292 333.53125 201.75 C 317.39418 173.79977 287.79994 158.46711 257.65625 159.25 z "
         transform="matrix(-0.86602541,0.5,0.5,0.86602541,463.24378,-98.270487)"
         id="path3369" />
    </g>
  </g>
</svg>
